<svg width="68" height="50" viewBox="0 0 68 50" fill="none" xmlns="http://www.w3.org/2000/svg">
<path fill-rule="evenodd" clip-rule="evenodd" d="M47.1205 25.006C47.1205 16.0288 39.0099 8.75 29.0067 8.75C19.0035 8.75 10.8929 16.0288 10.8929 25.006C10.8929 33.1191 17.5159 39.8446 26.1767 41.0655V29.7061H21.5762V25.006H26.1767V21.4237C26.1767 17.35 28.8819 15.0983 33.0187 15.0983C35.0004 15.0983 37.074 15.416 37.074 15.416V19.4166H34.789C32.5398 19.4166 31.8367 20.6694 31.8367 21.9564V25.0059H36.8599L36.0575 29.706H31.8365V41.0654C40.4973 39.8468 47.1204 33.1213 47.1204 25.0059L47.1205 25.006Z" fill="#4267B2"/>
<path fill-rule="evenodd" clip-rule="evenodd" d="M36.0576 29.706L36.86 25.0059H31.8368V21.9564C31.8368 20.6716 32.5373 19.4166 34.7891 19.4166H37.0741V15.416C37.0741 15.416 35.0007 15.0983 33.0188 15.0983C28.882 15.0983 26.1768 17.3478 26.1768 21.4238V25.006H21.5764V29.7061H26.1768V41.0655C27.0989 41.1956 28.044 41.262 29.0068 41.262C29.9697 41.262 30.9148 41.1934 31.8368 41.0655V29.7061H36.0578L36.0576 29.706Z" fill="#FEFEFE"/>
</svg>
