<svg width="26" height="27" viewBox="0 0 26 27" fill="none" xmlns="http://www.w3.org/2000/svg">
<path d="M25.7237 13.8038C25.7237 12.915 25.6479 12.0713 25.5179 11.25H13.2762V16.3238H20.2854C19.9712 17.9888 19.0504 19.395 17.6854 20.3513V23.7263H21.8671C24.3154 21.375 25.7237 17.91 25.7237 13.8038Z" fill="#4285F4"/>
<path d="M13.2762 27C16.7862 27 19.7221 25.785 21.8671 23.7262L17.6854 20.3512C16.5154 21.1612 15.0312 21.6562 13.2762 21.6562C9.8854 21.6562 7.01457 19.2825 5.9854 16.0762H1.67374V19.5525C3.8079 23.9625 8.1954 27 13.2762 27Z" fill="#34A853"/>
<path d="M5.98541 16.0762C5.71458 15.2662 5.57374 14.4 5.57374 13.5C5.57374 12.6 5.72541 11.7338 5.98541 10.9238V7.4475H1.67374C0.785411 9.27 0.276245 11.3175 0.276245 13.5C0.276245 15.6825 0.785411 17.73 1.67374 19.5525L5.98541 16.0762Z" fill="#FBBC05"/>
<path d="M13.2762 5.34375C15.1937 5.34375 16.9054 6.03 18.2596 7.36875L21.9646 3.52125C19.7221 1.33875 16.7862 0 13.2762 0C8.19541 0 3.8079 3.0375 1.67374 7.4475L5.98541 10.9238C7.01457 7.7175 9.88541 5.34375 13.2762 5.34375Z" fill="#EA4335"/>
</svg>
